<?xml version="1.0" encoding="UTF-8"?><svg id="Layer_2" xmlns="http://www.w3.org/2000/svg" viewBox="0 0 208.98 208.98"><defs><style>.cls-1{stroke-width:.84px;}.cls-1,.cls-2,.cls-3,.cls-4{stroke-miterlimit:10;}.cls-1,.cls-3,.cls-4{stroke:#0a2c3f;}.cls-1,.cls-4{fill:#0a2c3f;}.cls-2{fill:none;stroke:#f4f1e1;stroke-linecap:round;stroke-width:3.21px;}.cls-3{fill:#f4f1e1;stroke-width:3.21px;}.cls-4{stroke-width:3.37px;}.cls-5{fill:#ffba1f;}</style></defs><g id="Layer_1-2"><g><circle class="cls-4" cx="104.49" cy="104.49" r="102.81"/><circle class="cls-3" cx="104.49" cy="104.49" r="88.29"/><g><path class="cls-5" d="M170.27,102.48c-1.37,1.03-2.84,1.91-4.25,2.87-.92,.62-1.82,1.26-2.57,2.2,.47,.59,1.14,.93,1.7,1.35,1.82,1.33,3.33,2.94,4.4,4.93,.11,.2,.23,.41,.32,.62,.66,1.5,.49,2.28-.84,3.23-1.59,1.13-3.35,1.97-5.1,2.82-1.06,.52-2.15,.98-3.38,1.29,.5,1.04,1.16,1.87,1.78,2.72,.99,1.38,1.68,2.86,1.87,4.56,.18,1.62-.07,2.93-1.66,3.89-1.8,1.07-3.79,1.44-5.75,1.97-.18,.04-.36,.04-.54,.09-1.24,.25-1.26,.51-.75,1.44,1.04,1.89,1.51,3.97,1.88,6.07,.63,3.56-1.77,5.58-4.61,6.39-2.1,.61-4.22,.35-6.32-.15-1.3-.32-2.56-.8-3.8-1.3-3.88-1.64-7.61-3.57-11.33-5.55-2.17-1.15-4.35-2.24-6.6-3.24-3.72-1.65-6.49-4.38-8.84-7.59-2.14-2.92-3.85-6.1-5.34-9.39-.55-1.22-1.2-2.39-2.22-3.46-1.07,1.27-1.59,2.73-2.04,4.22-.51,1.68-.92,3.39-1.47,5.06-2.4,7.28-6.89,12.83-13.81,16.22-5.9,2.9-11.73,5.91-17.44,9.16-2.59,1.47-5.31,2.61-8.29,3.03-.41,.07-.8,.27-1.19,.38-.81,.22-1.6,.49-2.42,.61-1.34,.19-2-.28-2.33-1.59-.2-.76-.36-1.55-.29-2.33,.24-2.52,.15-5.07,.84-7.55,.14-.54-.04-1.01-.7-1.12-1.5-.23-2.98-.66-4.52-.63-1.3,.01-2.59-.09-3.81-.61-1.32-.55-1.62-.96-1.64-2.41,0-1.26,.25-2.49,.5-3.71,.27-1.36,.55-2.71,.75-4.09,.14-1.01,.32-1.17-1.05-1.37-2.76-.41-5.39-1.26-7.89-2.54-1.6-.82-1.78-1.39-.84-2.91,.62-.99,1.43-1.82,2.25-2.63,.94-.91,1.75-1.91,2.47-2.98,.3-.45,.3-.82,.06-1.28-.53-.97-1.32-1.68-2.22-2.25-1.4-.91-2.69-1.97-3.89-3.12-.51-.49-.99-.97-1.43-1.51-.96-1.22-.93-2.3,.19-3.31,1.26-1.15,2.52-2.32,4.11-3.04,.85-.39,1.62-.89,2.33-1.5,1.17-.99,1.13-2.1-.02-3.13-.86-.76-1.62-1.64-2.44-2.45-.84-.85-1.71-1.67-2.71-2.35-1.52-1.06-1.59-2.46-.18-3.69,1.26-1.08,2.53-2.15,4.03-2.92,.78-.4,1.53-.89,2.28-1.33,1.5-.87,1.61-1.23,.74-2.7-.26-.43-.59-.83-.91-1.23-.62-.75-1.19-1.52-1.76-2.32-.76-1.08-.86-2.17-.45-3.4,.24-.73,.63-1.18,1.29-1.51,1.09-.55,2.25-.84,3.45-1.03,.92-.15,1.81-.39,2.69-.7,1.02-.38,1.26-.98,.73-1.93-.36-.64-.86-1.2-1.3-1.8-.36-.48-.78-.93-1.07-1.45-.7-1.29-.27-2.36,1.14-2.83,3.66-1.19,7.39-2.1,11.2-2.63,2.56-.35,5.07,.12,7.58,.61,6.27,1.2,11.56,4.31,16.38,8.34,4.76,4,9.06,8.45,12.7,13.52,1.05,1.46,1.94,3.04,3.29,4.28,1.03,.93,2.02,.97,2.99-.04,.84-.88,1.39-1.94,1.76-3.12,.81-2.51,1.78-4.95,3.06-7.27,4.71-8.47,10.7-15.86,18.42-21.77,4.19-3.22,8.72-5.73,13.91-6.97,2.42-.59,4.84-.75,7.28-.19,.99,.23,1.9,.71,2.65,1.44,.9,.87,.94,1.94,.67,3.09-.45,1.97-1.43,3.7-2.49,5.38-.22,.35-.5,.66-.63,1.09,.51,.71,1.26,1.02,2.07,1.28,1.25,.39,2.53,.54,3.81,.73,1.68,.24,3.2,.87,4.63,1.76,1.5,.93,2.08,3.05,1.26,4.63-.3,.57-.72,1.08-1.08,1.61-.17,.22-.39,.41-.53,.64-1.17,1.89-.93,2.61,1.15,3.34,1.57,.56,3.07,1.29,4.51,2.12,1.17,.67,2.17,1.57,2.53,2.98,.14,.6,.08,1.08-.31,1.55-1.13,1.35-1.97,2.9-2.96,4.33-.21,.3-.38,.64-.52,.98-.65,1.55-.52,2.07,.8,3.06,1.67,1.26,3.35,2.48,5.02,3.72,.6,.44,1.14,.96,1.6,1.54,1.41,1.71,1.26,3.46-.54,4.8Z"/><path class="cls-1" d="M170.81,97.68c-.46-.57-1.01-1.09-1.6-1.54-1.67-1.25-3.35-2.46-5.02-3.72-1.31-.99-1.45-1.51-.8-3.06,.14-.34,.31-.69,.52-.98,.99-1.44,1.83-2.98,2.96-4.33,.39-.46,.45-.95,.31-1.55-.36-1.41-1.36-2.31-2.53-2.98-1.44-.83-2.94-1.56-4.51-2.12-2.08-.73-2.32-1.45-1.15-3.34,.14-.23,.36-.42,.53-.64,.36-.53,.78-1.04,1.08-1.61,.82-1.58,.24-3.7-1.26-4.63-1.43-.88-2.95-1.51-4.63-1.76-1.28-.19-2.56-.34-3.81-.73-.81-.26-1.56-.57-2.07-1.28,.13-.43,.41-.74,.63-1.09,1.06-1.68,2.03-3.41,2.49-5.38,.27-1.15,.22-2.22-.67-3.09-.75-.73-1.66-1.2-2.65-1.44-2.44-.56-4.86-.4-7.28,.19-5.19,1.24-9.72,3.76-13.91,6.97-7.72,5.91-13.71,13.29-18.42,21.77-1.28,2.32-2.25,4.76-3.06,7.27-.36,1.17-.92,2.23-1.76,3.12-.97,1.02-1.97,.97-2.99,.04-1.35-1.24-2.24-2.82-3.29-4.28-3.64-5.07-7.93-9.52-12.7-13.52-4.82-4.03-10.11-7.14-16.38-8.34-2.51-.49-5.02-.96-7.58-.61-3.81,.53-7.55,1.44-11.2,2.63-1.4,.46-1.83,1.54-1.14,2.83,.29,.52,.71,.97,1.07,1.45,.44,.6,.94,1.16,1.3,1.8,.53,.95,.29,1.56-.73,1.93-.87,.31-1.77,.54-2.69,.7-1.19,.19-2.35,.48-3.45,1.03-.66,.33-1.05,.78-1.29,1.51-.41,1.24-.31,2.32,.45,3.4,.56,.8,1.14,1.57,1.76,2.32,.32,.4,.64,.8,.91,1.23,.87,1.47,.76,1.82-.74,2.7-.75,.43-1.49,.93-2.28,1.33-1.5,.76-2.77,1.83-4.03,2.92-1.41,1.23-1.35,2.63,.18,3.69,.99,.68,1.87,1.5,2.71,2.35,.82,.82,1.58,1.69,2.44,2.45,1.15,1.03,1.19,2.13,.02,3.13-.71,.61-1.48,1.12-2.33,1.5-1.59,.72-2.85,1.89-4.11,3.04-1.12,1.02-1.15,2.1-.19,3.31,.43,.54,.92,1.03,1.43,1.51,1.2,1.15,2.49,2.21,3.89,3.12,.91,.57,1.69,1.28,2.22,2.25,.24,.46,.24,.83-.06,1.28-.73,1.07-1.54,2.08-2.47,2.98-.83,.81-1.64,1.64-2.25,2.63-.94,1.51-.76,2.09,.84,2.91,2.5,1.28,5.13,2.13,7.89,2.54,1.37,.2,1.19,.36,1.05,1.37-.2,1.38-.49,2.73-.75,4.09-.24,1.23-.5,2.45-.5,3.71,.01,1.45,.32,1.86,1.64,2.41,1.23,.52,2.51,.62,3.81,.61,1.54-.03,3.02,.4,4.52,.63,.65,.11,.84,.57,.7,1.12-.69,2.48-.6,5.03-.84,7.55-.08,.78,.09,1.57,.29,2.33,.33,1.32,.99,1.78,2.33,1.59,.82-.12,1.61-.39,2.42-.61,.4-.11,.78-.31,1.19-.38,2.97-.42,5.7-1.56,8.29-3.03,5.7-3.25,11.54-6.26,17.44-9.16,6.92-3.39,11.41-8.94,13.81-16.22,.55-1.67,.96-3.38,1.47-5.06,.45-1.49,.97-2.95,2.04-4.22,1.02,1.07,1.67,2.24,2.22,3.46,1.49,3.29,3.19,6.47,5.34,9.39,2.35,3.22,5.12,5.94,8.84,7.59,2.24,.99,4.43,2.09,6.6,3.24,3.71,1.98,7.45,3.91,11.33,5.55,1.24,.51,2.5,.98,3.8,1.3,2.1,.51,4.22,.76,6.32,.15,2.84-.81,5.24-2.83,4.61-6.39-.36-2.1-.84-4.18-1.88-6.07-.51-.93-.49-1.18,.75-1.44,.18-.04,.36-.04,.54-.09,1.96-.53,3.94-.9,5.75-1.97,1.59-.96,1.83-2.27,1.66-3.89-.19-1.7-.87-3.18-1.87-4.56-.62-.85-1.28-1.68-1.78-2.72,1.23-.31,2.32-.77,3.38-1.29,1.76-.85,3.51-1.69,5.1-2.82,1.33-.95,1.5-1.72,.84-3.23-.09-.21-.21-.42-.32-.62-1.07-1.99-2.57-3.6-4.4-4.93-.56-.42-1.23-.76-1.7-1.35,.75-.94,1.66-1.58,2.57-2.2,1.41-.96,2.88-1.85,4.25-2.87,1.8-1.34,1.96-3.08,.54-4.8Zm-36.74-41.71c-.18,.68-.64,.63-1.1,.99,.26-.69,.74-.61,1.1-.99Zm-43.81,24.54c.56,.56,1.12,1.13,1.68,1.68-.04,.04-.08,.09-.11,.12-.54-.57-1.08-1.16-1.62-1.73,.02-.02,.03-.04,.06-.07Zm-30.24,63.01c-.18,.01-.33-.06-.46-.19-.09-.1-.08-.19,.04-.21,.24-.04,.42,.09,.57,.26-.06,.04-.1,.12-.15,.13Zm-.27-2.28q1.37-.33,1.68,.73c-.54-.23-.99-.43-1.68-.73Zm1.35,7.47c-.21-.27-.06-.56-.03-.84,0-.02-.01-.04-.02-.07,.01,0,.03-.01,.04-.02,.08-.24,.17-.46,.24-.67,.12,.31,.12,.56-.24,.67-.01,.02-.01,.04-.02,.07v.02c.1,.28,.09,.55,.03,.84Zm31.74-7.47c.24-.45,.61-.57,1.24-.78-.41,.54-.77,.67-1.24,.78Zm4.69-6.63c.7-2.61,1.87-5.02,2.92-7.48-.71,2.6-1.03,5.35-2.92,7.48Zm2.5-1.61c-.15,.22-.24,.5-.73,.7,1.67-3.9,2.08-8.09,4.3-11.6-.96,3.71-1.26,7.64-3.57,10.91Zm2.91-11.71c.27-1.85,1.83-4.05,3.28-4.68-1.2,1.51-2.25,2.91-3.28,4.68Zm48.64,26.35c.43-.19,.78-.17,1.26-.11-.46,.34-.82,.3-1.26,.11Zm11.08-17.51c.23,1.32,.22,1.33-1.29,1.48,.33-.64,1.07-.82,1.29-1.48Zm5.64-29.62c-.9,.81-1.91,1.46-2.92,2.12-.97,.63-1.9,1.33-2.74,2.13-.51,.48-.96,1.01-1.23,1.66-.41,.97-.31,1.51,.48,2.23,1.05,.97,2.13,1.91,3.23,2.85,.73,.64,1.38,1.37,1.91,2.19,1.01,1.52,.94,1.91-.59,2.88-1.56,1.01-3.26,1.76-4.91,2.6-.86,.45-1.74,.9-2.35,1.69-.61,.77-.85,1.52-.28,2.5,.87,1.48,1.61,3.03,2.38,4.55,.94,1.88,.69,2.54-1.28,3.24-.91,.32-1.87,.52-2.8,.78-1.3,.39-2.52,.94-3.57,1.81-1.06,.87-1.18,1.56-.57,2.76,.55,1.12,1.13,2.23,1.67,3.36,.39,.78,.67,1.62,.84,2.5,.41,2.13-.75,3.83-2.89,4.3-1.92,.42-3.78,.02-5.61-.49-2.1-.57-4.08-1.49-6.05-2.39-3.25-1.47-6.56-2.8-9.72-4.42-3.38-1.72-6.51-3.89-9.5-6.22-.25-.2-.49-.43-.7-.67-2.31-2.6-4.57-5.23-6.31-8.25-.64-1.13-1.16-2.31-1.7-3.49-.63-1.35-1.37-2.63-2.25-3.82-.13-.18-.26-.38-.35-.59-.74-1.92-2.3-2.91-4.29-2.7-.76,.08-1.33,.4-1.87,1.02-1.94,2.24-3.02,4.96-4.29,7.57-1.33,2.72-2.2,5.6-3.26,8.41-2.02,5.38-5.67,9.36-10.55,12.29-3.85,2.32-7.85,4.34-11.8,6.47-2.76,1.49-5.55,2.96-8.41,4.28-1.1,.52-2.23,.9-3.47,.77-1.04-.1-1.44-.52-1.28-1.55,.15-1.01,.45-1.98,.7-2.97,.69-2.77,.9-5.56,.33-8.39-.04-.22-.08-.45-.14-.67-.25-.82-.5-.99-1.32-.83-.5,.09-.97,.25-1.47,.4-1.51,.43-3.07,.66-4.63,.9-.9,.13-1.74-.12-2.56-.44-.67-.27-.9-.73-.7-1.44,.25-.9,.69-1.71,1.04-2.56,.75-1.83,1.13-3.71,.62-5.69-.45-1.77-1.25-2.41-3.08-2.3-.88,.06-1.74-.03-2.6-.28-1.4-.41-2.87-.62-4.53-1.19,1.6-1.92,2.95-3.75,4.5-5.39,1.66-1.77,1.67-3.88-.24-5.36-2.23-1.73-4.34-3.61-6.67-5.22-.25-.18-.56-.33-.72-.81,.43-.57,1.12-.93,1.79-1.31,2.11-1.19,3.94-2.72,5.6-4.5,.74-.8,.82-1.58,.48-2.52-.46-1.26-1.34-2.21-2.25-3.13-1.3-1.33-2.87-2.33-4.1-3.75-.18-.21-.36-.41-.6-.67,1.25-.93,2.5-1.78,3.81-2.54,.99-.59,2.01-1.14,2.99-1.75,1.97-1.24,2.55-3.39,1.4-5.37-.6-1.02-1.43-1.82-2.23-2.66-.62-.65-1.06-1.38-1.25-2.36,1.04-.5,2.19-.63,3.28-.92,1.62-.41,3.14-1.03,4.61-1.85,.78-.43,1.03-.99,1.05-1.78,.03-1.01-.31-1.9-.77-2.77-.63-1.18-1.59-2.13-2.29-3.31,1.39-.82,2.91-1.07,4.4-1.31,4.23-.72,8.45-1.04,12.68-.02,4.19,1.02,7.98,2.9,11.58,5.22,4.67,2.99,8.63,6.81,12.51,10.73,2.82,2.84,5.29,5.94,7.75,9.06,2.04,2.6,3.87,2.51,6.18,.39,1.41-1.29,2.1-3.03,2.59-4.83,.4-1.48,.72-2.97,1.15-4.43,1.12-3.78,2.87-7.2,5.66-10.05,2.33-2.38,4.55-4.87,6.95-7.18,4-3.82,8.38-7.16,13.46-9.44,2.02-.91,4.1-1.7,6.18-2.46,1.64-.61,3.33-.8,5.02-.14,1.83,.71,3.03,2.04,1.39,4.32-.86,1.18-1.38,2.49-1.8,3.87-.28,.92-.03,1.54,.62,2.09,1.12,.94,2.36,1.59,3.82,1.86,2.1,.39,4.13,.99,6.17,1.64,1.5,.48,1.65,.94,.76,2.28-.93,1.44-1.87,2.85-2.43,4.5-.42,1.22-.11,2.07,.84,2.8,1.07,.83,2.31,1.36,3.55,1.86,.95,.39,1.89,.78,2.86,1.07,.8,.23,1.33,.81,1.96,1.27,.46,.33,.46,.76,.11,1.19-.41,.51-.82,1.01-1.24,1.5-1.18,1.38-2.1,2.93-2.78,4.62-.71,1.75-.49,2.32,1.04,3.35,1.87,1.27,3.89,2.32,5.77,3.58,2.17,1.45,2.19,2.03,.29,3.77Z"/><path class="cls-1" d="M64.84,88.19c4.22-2.28,8.48-3.31,13.14-1.41,3.18,1.3,6.12,3.03,9.03,4.82,1.93,1.19,3.92,2.26,5.98,3.21,4.94,2.27,10,2.33,15.17,.96,.51-.14,1.23-.79,1.57-.08,.25,.51-.64,.61-1.03,.87-.11,.07-.28,.13-.15,.28,.67,.8-.11,.78-.53,.89-3.83,.99-7.61,1.22-11.43-.23-4.16-1.57-8.15-3.42-12.07-5.53-4.45-2.4-9.31-3.54-14.45-3.02-1.01,.1-2.03,.17-3.04,.21-.42,.02-.91,.18-1.07-.53-.12-.54-.76,.21-1.12-.43Zm1.78,.05c2-.35,3.82-.66,5.65-.78,1.85-.12,3.7,0,5.52,.39-3.48-1.77-7.72-1.58-11.18,.39Z"/><path class="cls-1" d="M96.51,108.54c-2.41,.11-4.66,.72-6.49,2.38-1.44,1.31-2.77,2.72-4.15,4.09-.33,.33-.65,.66-1,.96-2.52,2.17-4.84,4.54-7.21,6.86-3.49,3.41-7.87,4.7-12.76,4.04-.41-.05-.81-.17-1.24-.09-.26,.05-.63,.13-.62-.28,0-.33,.08-.62,.61-.71,3.76-.65,7.35-1.85,10.55-3.96,3.06-2.02,5.74-4.52,8.25-7.18,2.91-3.09,6.26-5.46,10.27-6.86,.39-.14,.79-.28,1.15-.47,1.25-.67,2.53-.21,3.79-.13,.31,.02,.53,.26,.43,.58-.11,.31-.1,.78-.62,.78-.32,0-.65,0-.97,0Zm-18.83,12.96c-3.09,1.54-6.06,3.32-9.31,4.51,3.67-.33,6.85-1.67,9.31-4.51Zm8.18-7.67q-1.3,.81-1.69,1.68c.67-.49,1.21-1.04,1.69-1.68Z"/><path class="cls-1" d="M59.45,96.46c.13-.37,.43-.43,.67-.53,3.64-1.41,7.36-2.45,11.31-2.49,3.54-.03,6.73,1.11,9.77,2.75,1.79,.97,3.52,2.04,5.24,3.11,2.44,1.52,5.11,2.36,7.93,2.78,1.86,.28,3.74,.45,5.6,.66,.23,.03,.5,.05,.53,.34,.03,.28-.23,.4-.44,.43-1.19,.17-2.35,.51-3.56,.6-3.71,.26-7.02-.85-10.12-2.78-1.33-.83-2.66-1.66-3.94-2.56-2.93-2.07-6.15-3.1-9.74-3.12-3.39-.02-6.75,.16-10.04,1.05-.79,.21-1.63,.75-2.4-.15-.12-.15-.51,.22-.82-.08Zm7.62-1.44c.4,.09,.8,.24,1.3,.03-.19-.06-.27-.1-.36-.1-.31,.01-.63,.05-.94,.07Z"/><path class="cls-1" d="M119.45,115.57c-.43,.37-.91,.16-1.38,.06-2.32-.49-4.47-1.47-6.72-2.19-2.68-.85-5.39-1.71-8.29-1.03-1.89,.44-3.55,1.15-4.82,2.75-1.4,1.78-2.99,3.4-4.46,5.13-2.02,2.39-4.58,3.86-7.61,4.53-.65,.14-1.35,.1-2.02,.15-.16-.42,.12-.53,.35-.65,4.76-2.52,8.73-6.05,12.53-9.8,.92-.91,1.91-1.74,2.97-2.49,2.44-1.71,5.11-1.99,7.95-1.41,1.87,.39,3.63,1.09,5.34,1.91,.71,.34,1.41,.7,2.22,.74,.43,.02,.69,.19,.99,.58,.57,.74,1.63,.76,2.41,1.25,.18,.11,.46,.08,.53,.46Zm-30.98,7.57c1.64-.48,2.18-.82,2.84-1.82-.86,.55-1.72,1.1-2.84,1.82Z"/><path class="cls-1" d="M128.67,106.45c-1.32,.91-2.72,1.55-4.31,1.47-3.6-.18-6.8-1.54-9.83-3.4-.15-.1-.4-.24-.4-.36,.05-1.34-1.03-1.07-1.78-1.28-.34-.09-.76,.04-1.02-.4,.36-.51,.91-.34,1.36-.28,1.57,.21,3.04,.73,4.32,1.69,.52,.39,1.02,.79,1.56,1.15,2.37,1.6,4.91,2.14,7.75,1.44,.7-.17,1.54-.06,2.36-.04Z"/><path class="cls-1" d="M67.89,149.89c-.92-1.28-.91-1.37,.03-2.05,.68-.49,1.41-.93,2.21-1.12,2.77-.65,5.22-2.08,7.8-3.17,.08-.04,.16-.09,.25-.13,.33-.14,.75-.43,.97,0,.2,.4-.27,.62-.56,.83-1.35,.99-2.92,1.57-4.46,2.16-.99,.38-2,.71-2.98,1.1-1.24,.49-2.56,.85-3.25,2.37Z"/><path class="cls-1" d="M121.81,88.37c-.25-.05-.45-.05-.52-.27-.06-.22,.07-.35,.22-.46,.37-.27,.75-.53,1.12-.81,1.24-.92,2.26-2,2.93-3.44,.86-1.84,2.29-3.23,3.96-4.36,.08-.05,.15-.13,.23-.15,.37-.11,.79-.56,1.1-.05,.32,.52-.23,.72-.57,.91-2.45,1.34-3.59,3.79-5.01,5.99-.67,1.04-1.46,1.91-2.62,2.38-.3,.12-.61,.19-.85,.27Z"/><path class="cls-1" d="M55.17,112.42c-.1-1.38-.33-2.43-1.05-3.36-.42-.54-.7-1.19-1.06-1.78-.23-.38-.26-.8-.13-1.2,.11-.35,.37-.35,.63-.12,.06,.06,.12,.15,.14,.23,.27,1.29,1.05,2.18,2.1,2.95,1.1,.81,1.19,2.02,.86,3.26-.31,1.14-1.05,2.04-1.78,2.93-.15,.18-.35,.31-.6,.2-.31-.13-.37-.42-.31-.69,.1-.41,.33-.76,.63-1.05,.47-.45,.61-1.01,.57-1.37Z"/><path class="cls-1" d="M157.54,107.17c.1,.69,.2,1.68,.38,2.66,.19,1.04,.07,2.02-.47,2.92-.26,.44-.47,.9-.58,1.39-.09,.39-.32,.67-.65,.85-.33,.18-.52,0-.55-.35-.01-.13,.04-.28,.11-.39,.66-1.11,.65-2.35,.87-3.57,.18-1.03-.03-1.93-.14-2.89-.06-.5-.11-1.01,.09-1.5,.13-.31,.3-.6,.7-.5,.35,.08,.32,.4,.33,.67,0,.14-.03,.27-.08,.71Z"/><path class="cls-1" d="M145.7,142.3c-.05,.27-.22,.31-.41,.22-.29-.14-.58-.3-.84-.49-1.65-1.21-3.48-2.08-5.37-2.82-.21-.08-.44-.16-.63-.28-.09-.06-.17-.22-.17-.34,0-.25,.23-.24,.4-.28,.04,0,.09,0,.14,0,2.4,.73,4.69,1.68,6.56,3.42,.16,.15,.37,.3,.31,.56Z"/></g><line class="cls-2" x1="104.49" y1="205.33" x2="104.49" y2="195.92"/><line class="cls-2" x1="135.65" y1="200.39" x2="132.74" y2="191.44"/><line class="cls-2" x1="163.76" y1="186.07" x2="158.23" y2="178.46"/><line class="cls-2" x1="186.07" y1="163.77" x2="178.45" y2="158.23"/><line class="cls-2" x1="200.39" y1="135.66" x2="191.44" y2="132.75"/><line class="cls-2" x1="205.33" y1="104.5" x2="195.92" y2="104.5"/><line class="cls-2" x1="200.39" y1="73.33" x2="191.44" y2="76.24"/><line class="cls-2" x1="186.07" y1="45.22" x2="178.46" y2="50.76"/><line class="cls-2" x1="163.77" y1="22.91" x2="158.23" y2="30.53"/><line class="cls-2" x1="135.66" y1="8.59" x2="132.75" y2="17.54"/><line class="cls-2" x1="104.5" y1="3.65" x2="104.5" y2="13.06"/><line class="cls-2" x1="73.33" y1="8.59" x2="76.24" y2="17.54"/><line class="cls-2" x1="45.22" y1="22.91" x2="50.76" y2="30.52"/><line class="cls-2" x1="22.91" y1="45.22" x2="30.53" y2="50.75"/><line class="cls-2" x1="8.59" y1="73.33" x2="17.54" y2="76.23"/><line class="cls-2" x1="3.65" y1="104.49" x2="13.06" y2="104.49"/><line class="cls-2" x1="8.59" y1="135.65" x2="17.54" y2="132.74"/><line class="cls-2" x1="22.91" y1="163.76" x2="30.52" y2="158.23"/><line class="cls-2" x1="45.22" y1="186.07" x2="50.75" y2="178.45"/><line class="cls-2" x1="73.33" y1="200.39" x2="76.23" y2="191.44"/></g></g></svg>